HIERARCHY
ROOT Hips
{
  OFFSET 5.84602e-005 68.8428 3.50346
  CHANNELS 6 Xposition Yposition Zposition Zrotation Xrotation Yrotation
  JOINT Spine
  {
    OFFSET 0 8.597 -4.6522
    CHANNELS 3 Zrotation Xrotation Yrotation
    JOINT Spine1
    {
      OFFSET 0 7.8454 0.4098
      CHANNELS 3 Zrotation Xrotation Yrotation
      JOINT Spine2
      {
        OFFSET 0 9.7078 -2.1609
        CHANNELS 3 Zrotation Xrotation Yrotation
        JOINT Neck
        {
          OFFSET 0 21.8761 -0.4549
          CHANNELS 3 Zrotation Xrotation Yrotation
          JOINT Head
          {
            OFFSET 0 12.3537 3.3602
            CHANNELS 3 Zrotation Xrotation Yrotation
            End Site
            {
              OFFSET 0.0001 18.9506 0.5657
            }
          }
        }
        JOINT LeftShoulder
        {
          OFFSET 2.2086 21.1115 7.2329
          CHANNELS 3 Zrotation Xrotation Yrotation
          JOINT LeftArm
          {
            OFFSET 13.1193 3.0282 -4.8998
            CHANNELS 3 Zrotation Xrotation Yrotation
            JOINT LeftForeArm
            {
              OFFSET 27.4081 -0.0973053 -0.2375
              CHANNELS 3 Zrotation Xrotation Yrotation
              JOINT LeftHand
              {
                OFFSET 22.8641 0.0662994 -0.1369
                CHANNELS 3 Zrotation Xrotation Yrotation
                JOINT LeftHandIndex1
                {
                  OFFSET 8.8614 0.775009 2.4612
                  CHANNELS 3 Zrotation Xrotation Yrotation
                  JOINT LeftHandIndex2
                  {
                    OFFSET 3.3146 -0.808304 0.5841
                    CHANNELS 3 Zrotation Xrotation Yrotation
                    JOINT LeftHandIndex3
                    {
                      OFFSET 2.2628 -0.552002 0.3989
                      CHANNELS 3 Zrotation Xrotation Yrotation
                      End Site
                      {
                        OFFSET 1.6102 -0.4807 0.2612
                      }
                    }
                  }
                }
                JOINT LeftHandMiddle1
                {
                  OFFSET 8.9937 0.895004 0.2143
                  CHANNELS 3 Zrotation Xrotation Yrotation
                  JOINT LeftHandMiddle2
                  {
                    OFFSET 4.0984 0.0113983 -0.0242
                    CHANNELS 3 Zrotation Xrotation Yrotation
                    JOINT LeftHandMiddle3
                    {
                      OFFSET 2.2716 0.00689697 -0.0138001
                      CHANNELS 3 Zrotation Xrotation Yrotation
                      End Site
                      {
                        OFFSET 2.0404 -0.1441 0.0027
                      }
                    }
                  }
                }
                JOINT LeftHandRing1
                {
                  OFFSET 8.5234 0.597198 -2.0164
                  CHANNELS 3 Zrotation Xrotation Yrotation
                  JOINT LeftHandRing2
                  {
                    OFFSET 3.7188 -0.188293 -0.2328
                    CHANNELS 3 Zrotation Xrotation Yrotation
                    JOINT LeftHandRing3
                    {
                      OFFSET 2.1191 -0.106598 -0.1332
                      CHANNELS 3 Zrotation Xrotation Yrotation
                      End Site
                      {
                        OFFSET 1.8737 -0.2304 -0.0886
                      }
                    }
                  }
                }
                JOINT LeftHandPinky1
                {
                  OFFSET 7.9094 -0.601089 -3.4825
                  CHANNELS 3 Zrotation Xrotation Yrotation
                  JOINT LeftHandPinky2
                  {
                    OFFSET 2.2874 -0.477005 -0.6314
                    CHANNELS 3 Zrotation Xrotation Yrotation
                    JOINT LeftHandPinky3
                    {
                      OFFSET 1.6774 -0.349396 -0.4633
                      CHANNELS 3 Zrotation Xrotation Yrotation
                      End Site
                      {
                        OFFSET 1.4888 -0.4091 -0.3416
                      }
                    }
                  }
                }
                JOINT LeftHandThumb1
                {
                  OFFSET 1.833 -1.3875 1.3896
                  CHANNELS 3 Zrotation Xrotation Yrotation
                  JOINT LeftHandThumb2
                  {
                    OFFSET 3.4129 -1.121 2.5732
                    CHANNELS 3 Zrotation Xrotation Yrotation
                    JOINT LeftHandThumb3
                    {
                      OFFSET 2.2474 -0.804199 1.6192
                      CHANNELS 3 Zrotation Xrotation Yrotation
                      End Site
                      {
                        OFFSET 1.6527 -0.5689 1.1317
                      }
                    }
                  }
                }
              }
            }
          }
        }
        JOINT RightShoulder
        {
          OFFSET -2.2086 21.1115 7.2329
          CHANNELS 3 Zrotation Xrotation Yrotation
          JOINT RightArm
          {
            OFFSET -13.1216 3.0287 -4.9007
            CHANNELS 3 Zrotation Xrotation Yrotation
            JOINT RightForeArm
            {
              OFFSET -27.4081 -0.0973053 -0.2375
              CHANNELS 3 Zrotation Xrotation Yrotation
              JOINT RightHand
              {
                OFFSET -22.8641 0.0664063 -0.1369
                CHANNELS 3 Zrotation Xrotation Yrotation
                JOINT RightHandIndex1
                {
                  OFFSET -8.8614 0.774994 2.4612
                  CHANNELS 3 Zrotation Xrotation Yrotation
                  JOINT RightHandIndex2
                  {
                    OFFSET -3.3146 -0.808304 0.5841
                    CHANNELS 3 Zrotation Xrotation Yrotation
                    JOINT RightHandIndex3
                    {
                      OFFSET -2.2628 -0.552002 0.3989
                      CHANNELS 3 Zrotation Xrotation Yrotation
                      End Site
                      {
                        OFFSET -1.6102 -0.4807 0.2612
                      }
                    }
                  }
                }
                JOINT RightHandMiddle1
                {
                  OFFSET -8.9937 0.894989 0.2143
                  CHANNELS 3 Zrotation Xrotation Yrotation
                  JOINT RightHandMiddle2
                  {
                    OFFSET -4.0984 0.0113983 -0.0242
                    CHANNELS 3 Zrotation Xrotation Yrotation
                    JOINT RightHandMiddle3
                    {
                      OFFSET -2.2716 0.00691223 -0.0138001
                      CHANNELS 3 Zrotation Xrotation Yrotation
                      End Site
                      {
                        OFFSET -2.0404 -0.1441 0.0027
                      }
                    }
                  }
                }
                JOINT RightHandRing1
                {
                  OFFSET -8.5234 0.597198 -2.0164
                  CHANNELS 3 Zrotation Xrotation Yrotation
                  JOINT RightHandRing2
                  {
                    OFFSET -3.7188 -0.188309 -0.2328
                    CHANNELS 3 Zrotation Xrotation Yrotation
                    JOINT RightHandRing3
                    {
                      OFFSET -2.1191 -0.106598 -0.1332
                      CHANNELS 3 Zrotation Xrotation Yrotation
                      End Site
                      {
                        OFFSET -1.8737 -0.2304 -0.0886
                      }
                    }
                  }
                }
                JOINT RightHandPinky1
                {
                  OFFSET -7.9094 -0.601105 -3.4825
                  CHANNELS 3 Zrotation Xrotation Yrotation
                  JOINT RightHandPinky2
                  {
                    OFFSET -2.2874 -0.477005 -0.6314
                    CHANNELS 3 Zrotation Xrotation Yrotation
                    JOINT RightHandPinky3
                    {
                      OFFSET -1.6774 -0.349396 -0.4633
                      CHANNELS 3 Zrotation Xrotation Yrotation
                      End Site
                      {
                        OFFSET -1.4888 -0.4091 -0.3416
                      }
                    }
                  }
                }
                JOINT RightHandThumb1
                {
                  OFFSET -1.833 -1.38751 1.3896
                  CHANNELS 3 Zrotation Xrotation Yrotation
                  JOINT RightHandThumb2
                  {
                    OFFSET -3.41299 -1.12099 2.5732
                    CHANNELS 3 Zrotation Xrotation Yrotation
                    JOINT RightHandThumb3
                    {
                      OFFSET -2.24741 -0.804108 1.6192
                      CHANNELS 3 Zrotation Xrotation Yrotation
                      End Site
                      {
                        OFFSET -1.6527 -0.5689 1.1317
                      }
                    }
                  }
                }
              }
            }
          }
        }
      }
    }
  }
  JOINT RightUpLeg
  {
    OFFSET -9.1966 3.8861 -0.7581
    CHANNELS 3 Zrotation Xrotation Yrotation
    JOINT RightLeg
    {
      OFFSET -0.7359 -41.0265 0
      CHANNELS 3 Zrotation Xrotation Yrotation
      JOINT RightFoot
      {
        OFFSET 0 -40.2855 0
        CHANNELS 3 Zrotation Xrotation Yrotation
        JOINT RightToeBase
        {
          OFFSET 0 -5.6122 11.7359
          CHANNELS 3 Zrotation Xrotation Yrotation
          End Site
          {
            OFFSET 0 0 7.8731
          }
        }
      }
    }
  }
  JOINT LeftUpLeg
  {
    OFFSET 9.1965 3.8864 -0.7581
    CHANNELS 3 Zrotation Xrotation Yrotation
    JOINT LeftLeg
    {
      OFFSET 0.7359 -41.0268 0
      CHANNELS 3 Zrotation Xrotation Yrotation
      JOINT LeftFoot
      {
        OFFSET 0 -40.2855 0
        CHANNELS 3 Zrotation Xrotation Yrotation
        JOINT LeftToeBase
        {
          OFFSET 0 -5.6122 11.7359
          CHANNELS 3 Zrotation Xrotation Yrotation
          End Site
          {
            OFFSET 0 0 7.8731
          }
        }
      }
    }
  }
}
MOTION
Frames:	7
Frame Time:	0.0333333
5.84602e-005 68.8428 3.50346 0 0 -0 0 0 -0 0 0 -0 0 0 -0 0 0 -0 0 0 -0 0 0 -0 0 0 -0 0 0 -0 0 0 -0 0 0 -0 0 0 -0 0 0 -0 0 0 -0 -0.0146107 -8.87603e-005 -2.63497e-007 2.99804e-018 -2.42657e-020 -1.42182e-022 0 0 -0 -0.0187562 -0.001176 5.858e-005 5.06224e-018 3.88251e-019 1.21329e-020 0 0 -0 -0.012269 -0.00324817 0.000675346 -1.74678e-018 3.88251e-019 -0 0 0 -0 0 0 -0 0 0 -0 0 0 -0 0 0 -0 0 0 -0 0 0 -0 0 0 -0 0 0 -0 0 0 -0 0 0 -0 0.0149955 -9.10982e-005 2.64101e-007 -9.69331e-018 1.21329e-020 -4.7394e-023 0 0 -0 0.0189956 -0.00119102 -5.96516e-005 -5.41541e-019 0 2.42657e-020 0 0 -0 0.0122698 -0.00324857 -0.000673756 -2.00796e-019 0 -1.94126e-019 0 0 -0 0 0 -0 0 0 -0 3.39842 1.33031 -0.0637918 -5.65207e-008 0.834868 -0.000436188 -3.39935 -2.16518 -0.0642563 -8.89002e-024 -1.18485e-023 -1.48106e-024 -3.39844 1.35642 0.0640283 -3.18788e-007 0.782166 -0.000588827 3.39931 -2.13858 0.0634662 1.1399e-023 0 -0 
0.739978 29.1381 0.17257 0 21.5975 -0 -0.238492 6.85153 -0.185518 -0.459438 13.704 -0.345821 -0.459439 13.704 -0.345821 1.55782e-006 -7.33062e-005 -1.02819e-006 1.19274e-007 1.33243e-009 2.83749e-009 -5.93137 0.73174 -20.964 -30.9161 -16.4754 -44.3457 1.98321 -15.0691 -3.79376 18.6533 2.10603 1.43741 1.19271e-014 1.59028e-015 -0 -1.10686e-007 3.83496e-007 1.50371e-007 -1.10686e-007 3.83496e-007 1.50371e-007 1.19271e-014 1.59028e-015 -0 -0.0146202 -8.90643e-005 1.10922e-006 -1.10684e-007 3.83477e-007 1.5042e-007 1.19271e-014 1.59028e-015 -0 -0.0187671 -0.00117492 5.89304e-005 -1.10682e-007 3.83472e-007 1.50435e-007 1.19271e-014 1.59028e-015 -0 -0.0122274 -0.00323699 0.000674963 -1.10678e-007 3.83481e-007 1.50415e-007 1.19271e-014 1.59028e-015 -0 -1.10686e-007 3.83496e-007 1.50371e-007 -1.10686e-007 3.83496e-007 1.50371e-007 5.96121 0.574069 21.2255 22.2794 -3.66131 46.6824 -3.31739 -14.9661 1.50129 -19.5144 2.20964 -1.06594 -4.77083e-015 0 -0 -6.36111e-015 6.36111e-015 6.36111e-015 3.18055e-015 6.36111e-015 -0 -4.77083e-015 0 -0 0.0149382 -9.04932e-005 1.57796e-006 -3.53113e-030 -1.27222e-014 -1.59028e-014 -4.77083e-015 0 -0 0.0189611 -0.00118592 -5.44886e-005 -4.77083e-015 3.18055e-015 -0 -4.77083e-015 0 -0 0.0122814 -0.00325269 -0.000684093 1.76556e-031 -3.18055e-015 3.18055e-015 -4.77083e-015 0 -0 -6.36111e-015 6.36111e-015 6.36111e-015 3.18055e-015 6.36111e-015 -0 -22.5163 -51.5761 -22.2451 -126.566 72.1633 135.446 14.6021 30.8275 -12.1574 -2.67981e-007 -5.62167e-008 -3.2713e-007 22.406 -51.6768 22.2965 126.735 72.1867 -135.551 -14.4279 30.4386 12.2341 7.95139e-016 0 3.37934e-015 
1.07429 11.475 -1.239 0 30.7312 -0 -0.303685 10.0669 -0.307486 -0.564907 20.1351 -0.573403 -0.564907 20.1352 -0.573403 -2.10125e-006 6.29366e-005 1.1691e-006 -3.24379e-007 -4.22016e-009 -2.77379e-007 -8.53761 0.979411 -29.8941 -51.254 -14.2974 -65.3109 2.13711 -21.6618 -5.89102 26.8877 3.22378 2.37712 -3.48021e-008 3.50983e-007 2.40104e-007 -9.66039e-008 2.21758e-007 1.18217e-006 -3.48021e-008 3.50983e-007 2.40104e-007 -3.48021e-008 3.50983e-007 2.40104e-007 -0.0145973 -8.79238e-005 -9.22314e-007 -3.48002e-008 3.50952e-007 2.40149e-007 -3.48021e-008 3.50983e-007 2.40104e-007 -0.0187364 -0.00117321 5.78943e-005 -3.47972e-008 3.50944e-007 2.40162e-007 -3.48021e-008 3.50983e-007 2.40104e-007 -0.0122464 -0.00324165 0.000676894 -3.47917e-008 3.50958e-007 2.40142e-007 -3.48021e-008 3.50983e-007 2.40104e-007 -9.66039e-008 2.21758e-007 1.18217e-006 -3.48021e-008 3.50983e-007 2.40104e-007 8.61311 0.770323 30.2656 33.7569 -2.63001 68.1931 -4.50065 -21.5595 2.39188 -28.1212 3.37512 -1.84681 -1.55858e-006 7.05289e-007 -1.31576e-006 2.13265e-007 6.83344e-007 -4.56204e-007 2.38131e-006 4.32334e-007 -1.41954e-006 -1.55858e-006 7.05289e-007 -1.31576e-006 0.0149666 -8.82673e-005 -9.39558e-007 6.0949e-007 4.53981e-007 -2.27916e-006 -1.55858e-006 7.05289e-007 -1.31576e-006 0.0189871 -0.00118813 -6.42799e-005 6.09477e-007 4.53899e-007 -2.27918e-006 -1.55858e-006 7.05289e-007 -1.31576e-006 0.0122599 -0.00324724 -0.000678392 2.38296e-006 4.31747e-007 -1.41975e-006 -1.55858e-006 7.05289e-007 -1.31576e-006 2.13265e-007 6.83344e-007 -4.56204e-007 2.38131e-006 4.32334e-007 -1.41954e-006 -64.6486 -68.6526 -59.1262 -154.353 30.5893 156.772 29.9828 45.2713 -22.4536 -2.75814e-015 -6.36111e-015 1.49089e-016 64.7471 -68.7119 59.4858 154.481 30.57 -156.824 -29.6118 44.6869 22.4548 2.45248e-007 -2.71809e-007 7.66765e-007 
0.999636 15.158 -0.619053 0 27.4005 -0 -0.296148 9.64775 -0.273314 -0.556951 19.2967 -0.506211 -0.556951 19.2967 -0.506211 -1.33487e-005 0.000165109 3.93141e-006 3.77179e-008 -1.50225e-009 2.99437e-007 -8.19895 0.926312 -26.7849 -46.1033 -13.4681 -61.6047 2.06916 -19.9027 -5.77783 24.7819 3.35521 2.81593 1.22143e-007 -7.13109e-007 -4.51755e-007 1.22143e-007 -7.13109e-007 -4.51755e-007 6.10716e-008 -3.56554e-007 -2.25877e-007 1.22143e-007 -7.13109e-007 -4.51755e-007 -0.0146444 -8.95161e-005 2.1723e-007 6.1069e-008 -3.56526e-007 -2.25923e-007 1.22143e-007 -7.13109e-007 -4.51755e-007 -0.0187521 -0.00117631 5.73751e-005 2.19753e-006 -6.96372e-007 7.10743e-008 1.22143e-007 -7.13109e-007 -4.51755e-007 -0.0122729 -0.00325019 0.000676157 6.10611e-008 -3.56531e-007 -2.25917e-007 1.22143e-007 -7.13109e-007 -4.51755e-007 1.22143e-007 -7.13109e-007 -4.51755e-007 6.10716e-008 -3.56554e-007 -2.25877e-007 8.25797 0.736472 27.1167 31.0895 -2.21406 64.5401 -4.18771 -19.7998 2.46835 -25.8813 3.49717 -2.34017 -2.44602e-007 -6.9349e-007 4.20772e-007 -1.11319e-014 0 -3.18055e-015 -2.44602e-007 -6.9349e-007 4.20772e-007 -2.44602e-007 -6.9349e-007 4.20772e-007 0.0149936 -9.23771e-005 8.35291e-007 -2.44588e-007 -6.93435e-007 4.20863e-007 -2.44602e-007 -6.9349e-007 4.20772e-007 0.0190079 -0.00119345 -6.19452e-005 -2.4458e-007 -6.93421e-007 4.20889e-007 -2.44602e-007 -6.9349e-007 4.20772e-007 0.0122221 -0.00323342 -0.00067142 -2.44575e-007 -6.93449e-007 4.20852e-007 -2.44602e-007 -6.9349e-007 4.20772e-007 -1.11319e-014 0 -3.18055e-015 -2.44602e-007 -6.9349e-007 4.20772e-007 -50.9811 -64.4472 -46.6216 -151.305 39.8913 156.161 24.6233 42.0482 -19.0988 -3.10916e-007 -2.30522e-007 -7.57152e-007 50.9902 -64.5292 46.854 151.437 39.8831 -156.221 -24.3388 41.5349 19.142 4.22441e-006 9.17342e-006 -3.05745e-006 
0.999589 14.9751 -0.365827 0 26.3333 -0 -0.29949 9.89005 -0.269399 -0.563855 19.7816 -0.496768 -0.563855 19.7816 -0.496768 -6.77608e-006 0.000184421 3.42237e-007 -2.74483e-007 9.58329e-006 -1.67e-007 -8.38994 0.919333 -25.8629 -45.5928 -11.9165 -62.255 2.00652 -19.6573 -6.08237 24.5503 3.66361 3.34814 -6.34312e-008 3.54555e-007 2.28e-007 -6.34313e-008 3.54555e-007 2.28e-007 -1.26863e-007 7.09109e-007 4.55999e-007 -6.34312e-008 3.54555e-007 2.28e-007 -0.0146228 -9.00246e-005 -2.04504e-006 -1.26856e-007 7.09051e-007 4.5609e-007 -6.34312e-008 3.54555e-007 2.28e-007 -0.0187478 -0.0011764 5.69821e-005 1.46277e-006 5.88389e-007 1.16021e-006 -6.34312e-008 3.54555e-007 2.28e-007 -0.0122753 -0.0032474 0.000675357 -1.26841e-007 7.09063e-007 4.56078e-007 -6.34312e-008 3.54555e-007 2.28e-007 -6.34313e-008 3.54555e-007 2.28e-007 -1.26863e-007 7.09109e-007 4.55999e-007 8.44509 0.736824 26.1821 30.9749 -1.57537 65.4536 -4.13248 -19.5577 2.69914 -25.6079 3.8061 -2.88845 -9.29152e-007 3.07592e-007 3.61207e-006 3.69577e-006 -1.28516e-006 -3.1717e-006 -9.29152e-007 3.07592e-007 3.61207e-006 -9.29152e-007 3.07592e-007 3.61207e-006 0.0149686 -9.49851e-005 -3.56912e-006 -3.12778e-006 6.96109e-008 2.7653e-006 -9.29152e-007 3.07592e-007 3.61207e-006 0.0189822 -0.00119082 -6.5113e-005 -9.2924e-007 3.08197e-007 3.61203e-006 -9.29152e-007 3.07592e-007 3.61207e-006 0.0122999 -0.0032573 -0.00068037 -3.12792e-006 6.92699e-008 2.76533e-006 -9.29152e-007 3.07592e-007 3.61207e-006 3.69577e-006 -1.28516e-006 -3.1717e-006 -9.29152e-007 3.07592e-007 3.61207e-006 -50.7956 -63.284 -46.1493 -151.29 39.9043 156.154 23.5415 42.0496 -18.5382 -3.1148e-007 -2.31112e-007 -7.56634e-007 50.7975 -63.363 46.3677 151.423 39.8956 -156.214 -23.2757 41.5553 18.5879 -1.25989e-006 9.23373e-007 -3.02074e-006 
0.999542 14.7948 -0.112153 0 25.264 -0 -0.302851 10.1332 -0.265429 -0.570868 20.2676 -0.487158 -0.570868 20.2676 -0.487159 -2.34854e-005 0.00086473 8.16921e-006 1.42809e-007 -9.58826e-006 3.35165e-007 -8.58107 0.909283 -24.9397 -45.0671 -10.3698 -62.9151 1.94538 -19.4116 -6.38622 24.3156 3.97008 3.88215 -1.85182e-006 -5.59394e-007 -7.85463e-007 -1.31516e-007 7.05001e-007 4.60162e-007 1.31516e-007 -7.05001e-007 -4.60162e-007 -1.85182e-006 -5.59394e-007 -7.85463e-007 -0.0146155 -8.89563e-005 -8.1054e-008 1.31509e-007 -7.04943e-007 -4.60252e-007 -1.85182e-006 -5.59394e-007 -7.85463e-007 -0.0187496 -0.00117544 5.95553e-005 2.11326e-006 -8.50687e-007 -1.35018e-007 -1.85182e-006 -5.59394e-007 -7.85463e-007 -0.0122819 -0.00325065 0.000677429 1.31493e-007 -7.04954e-007 -4.60241e-007 -1.85182e-006 -5.59394e-007 -7.85463e-007 -1.31516e-007 7.05001e-007 4.60162e-007 1.31516e-007 -7.05001e-007 -4.60162e-007 8.63248 0.73414 25.2462 30.8502 -0.937784 66.3682 -4.07836 -19.3154 2.92937 -25.3311 4.11262 -3.43881 1.11319e-014 6.36111e-015 6.36111e-015 6.36111e-015 -6.36111e-015 -3.18055e-015 3.18055e-015 -3.18055e-015 -6.36111e-015 1.11319e-014 6.36111e-015 6.36111e-015 0.015008 -9.19672e-005 -1.46462e-006 -4.77083e-015 -3.18055e-015 -0 1.11319e-014 6.36111e-015 6.36111e-015 0.0189925 -0.0011938 -6.69988e-005 -6.36111e-015 9.54166e-015 -6.36111e-015 1.11319e-014 6.36111e-015 6.36111e-015 0.0122316 -0.00323854 -0.000675277 6.36111e-015 9.54166e-015 3.18055e-015 1.11319e-014 6.36111e-015 6.36111e-015 6.36111e-015 -6.36111e-015 -3.18055e-015 3.18055e-015 -3.18055e-015 -6.36111e-015 -50.6364 -62.1184 -45.7007 -151.275 39.9177 156.148 22.4593 42.0435 -17.9772 -6.27366e-007 6.04917e-006 -1.85334e-006 50.6325 -62.1943 45.9061 151.409 39.9082 -156.208 -22.2115 41.5682 18.0328 -3.13862e-007 3.48187e-006 -5.83771e-007 
0.999494 14.6172 0.141871 0 24.1929 -0 -0.306227 10.3768 -0.2614 -0.577995 20.7548 -0.47738 -0.577996 20.7548 -0.47738 3.8428e-006 -1.91137e-005 -6.8622e-008 -2.91783e-008 -3.24131e-009 3.83617e-007 -8.77228 0.896121 -24.0152 -44.5258 -8.83015 -63.5872 1.88569 -19.1656 -6.68942 24.0778 4.27452 4.41799 1.80844e-006 -4.43597e-007 7.48351e-007 -1.59028e-015 -6.36111e-015 1.59028e-015 -1.80844e-006 4.43597e-007 -7.48351e-007 1.80844e-006 -4.43597e-007 7.48351e-007 -0.0145839 -9.06663e-005 4.33794e-006 -1.19271e-015 -3.18055e-015 -0 1.80844e-006 -4.43597e-007 7.48351e-007 -0.0187483 -0.00117722 6.26008e-005 -3.97569e-016 0 -3.18055e-015 1.80844e-006 -4.43597e-007 7.48351e-007 -0.0122734 -0.00324828 0.000676029 6.36111e-015 0 7.95139e-015 1.80844e-006 -4.43597e-007 7.48351e-007 -1.59028e-015 -6.36111e-015 1.59028e-015 -1.80844e-006 4.43597e-007 -7.48351e-007 8.82006 0.728362 24.3089 30.7152 -0.302636 67.2845 -4.02535 -19.0728 3.15905 -25.0512 4.41669 -3.99127 -1.31014e-006 -7.79778e-007 -1.05e-006 3.18055e-015 9.54166e-015 6.36111e-015 1.31014e-006 7.79778e-007 1.05e-006 -1.31014e-006 -7.79778e-007 -1.05e-006 0.0149511 -9.17347e-005 -3.09089e-006 -1.31218e-006 -7.79902e-007 -1.04989e-006 -1.31014e-006 -7.79778e-007 -1.05e-006 0.0189883 -0.00119013 -6.1085e-005 1.31274e-006 7.7979e-007 1.04985e-006 -1.31014e-006 -7.79778e-007 -1.05e-006 0.0122775 -0.00325278 -0.00067466 -1.31184e-006 -7.79454e-007 -1.04978e-006 -1.31014e-006 -7.79778e-007 -1.05e-006 3.18055e-015 9.54166e-015 6.36111e-015 1.31014e-006 7.79778e-007 1.05e-006 -50.503 -60.9503 -45.2747 -151.259 39.9309 156.142 21.3768 42.0297 -17.416 -2.36949e-007 4.38916e-006 2.53673e-006 50.4935 -61.023 45.4676 151.395 39.9208 -156.202 -21.1466 41.5737 17.4769 1.39149e-015 1.27222e-014 -1.19271e-015 
